<svg width="24" height="24" viewBox="0 0 24 24" fill="none" xmlns="http://www.w3.org/2000/svg">
<path d="M20.3193 0.125C22.0938 0.125036 23.5381 1.56925 23.5381 3.34375V20.3193C23.538 22.0938 22.0938 23.538 20.3193 23.5381H20.1943V23.5352H15.3271C15.0232 23.535 14.7774 23.2893 14.7773 22.9854V15.1514C14.7776 14.8475 15.0233 14.6017 15.3271 14.6016H17.7041C17.7829 14.6016 17.8482 14.5418 17.8545 14.4619L18.0303 12.1816L18.0283 12.1426C18.022 12.1076 18.0038 12.0824 17.9893 12.0664C17.9725 12.0481 17.9378 12.0186 17.877 12.0186H15.3242C15.0202 12.0183 14.7744 11.7728 14.7744 11.4688V9.4209C14.7744 8.35193 15.6438 7.47949 16.7158 7.47949H17.792C17.875 7.47949 17.9422 7.4119 17.9424 7.33008V5.04883C17.9422 4.96588 17.8738 4.89941 17.792 4.89941H16.7129C14.218 4.89941 12.1885 6.92896 12.1885 9.42383V11.4717C12.1885 11.7759 11.9429 12.0215 11.6387 12.0215H9.7998C9.71687 12.0217 9.65039 12.09 9.65039 12.1719V14.4521C9.65045 14.5351 9.71805 14.6014 9.7998 14.6016H11.6387C11.9427 14.6016 12.1882 14.8474 12.1885 15.1514V22.9854C12.1884 23.2894 11.9428 23.5352 11.6387 23.5352H3.34375C1.56922 23.5352 0.125 22.0909 0.125 20.3164V3.34375C0.125 1.56922 1.56922 0.125 3.34375 0.125H20.3193ZM3.34375 1.22461C2.17475 1.22461 1.22461 2.17475 1.22461 3.34375V20.3193C1.22465 21.4883 2.17477 22.4385 3.34375 22.4385H11.0947V15.7051H9.80566C9.11635 15.705 8.55578 15.1444 8.55566 14.4551V12.1738C8.55591 11.4846 9.11643 10.9249 9.80566 10.9248H11.0947V9.42578C11.095 6.32559 13.6185 3.80273 16.7188 3.80273H17.7979C18.4872 3.80273 19.0477 4.3624 19.0479 5.05176V7.33301C19.0476 8.0223 18.4872 8.58203 17.7979 8.58203H16.7217C16.2581 8.58203 15.8799 8.96025 15.8799 9.42383V10.9219H17.8828C18.2287 10.9219 18.5653 11.066 18.8018 11.3213C19.038 11.5765 19.1573 11.923 19.1289 12.2695L18.9541 14.5498C18.9036 15.1983 18.356 15.7051 17.707 15.7051H15.8799V22.4355H20.3193C21.4883 22.4355 22.4385 21.4854 22.4385 20.3164V3.34375C22.4385 2.17477 21.4883 1.22465 20.3193 1.22461H3.34375Z" fill="white" stroke="white" stroke-width="0.25"/>
</svg>
