<svg width="24" height="24" viewBox="0 0 24 24" fill="none" xmlns="http://www.w3.org/2000/svg">
<path d="M16.1006 0.125C20.201 0.125 23.5381 3.46205 23.5381 7.5625V16.1006C23.5381 20.201 20.201 23.5381 16.1006 23.5381H15.9756V23.5352H7.5625C3.46205 23.5352 0.125 20.1981 0.125 16.0977V7.55957C0.125 3.46192 3.46208 0.125 7.5625 0.125H16.1006ZM7.5625 1.22461C4.06757 1.22461 1.22461 4.06757 1.22461 7.5625V16.1006C1.22461 19.5955 4.06757 22.4385 7.5625 22.4385H16.1006C19.5955 22.4385 22.4385 19.5955 22.4385 16.1006V7.5625C22.4385 4.06757 19.5955 1.22461 16.1006 1.22461H7.5625Z" fill="white" stroke="white" stroke-width="0.25"/>
<path d="M11.8315 6.23535C14.9149 6.23535 17.4243 8.74473 17.4243 11.8281C17.4243 14.9115 14.9149 17.4209 11.8315 17.4209C8.74809 17.4209 6.23871 14.9115 6.23871 11.8281C6.23871 8.74473 8.74809 6.23535 11.8315 6.23535ZM11.8315 7.33789C9.35361 7.33789 7.33832 9.35319 7.33832 11.8311C7.33837 14.3089 9.35365 16.3242 11.8315 16.3242C14.3093 16.3242 16.3246 14.3089 16.3246 11.8311C16.3246 9.35319 14.3094 7.33789 11.8315 7.33789Z" fill="white" stroke="white" stroke-width="0.25"/>
<path d="M18.2735 4.49121C18.7946 4.49121 19.2176 4.91353 19.2178 5.43457C19.2178 5.95579 18.7947 6.37891 18.2735 6.37891C17.7525 6.3787 17.3301 5.95566 17.3301 5.43457C17.3303 4.91366 17.7526 4.49142 18.2735 4.49121Z" fill="white" stroke="white" stroke-width="0.25"/>
</svg>
